# xmcd
# 
# Track frame offsets:
#     150
#     14789
#     50221
#     68384
#     86707
#     104339
#     123549
#     139347
#     154301
#     174957
#     195698
#     209288
#     226855
# 
# Disc length: 3298
# 
# Revision: 0
# Processed by: cddbd v1.5.2PL0 Copyright (c) Steve Scherf et al.
# Submitted via: BonkEnc v1.0.15
# 
DISCID=b90ce00d
DTITLE=Fusanosuke Kondo - 1968
DYEAR=2010
DGENRE=Blues
TTITLE0=Catfish Blues
TTITLE1=Walking The Back Streets And Crying
TTITLE2=Blue Shadows
TTITLE3=She Moves Me
TTITLE4=Aain't Nobody's Business
TTITLE5=Little By Little
TTITLE6=All Your Love I Miss Loving
TTITLE7=Double Trouble
TTITLE8=Sweet Home Chicago
TTITLE9=You're Breaking My Heart
TTITLE10=Cryin' Won't Help You Now
TTITLE11=Cry To Me
TTITLE12=Why I Sing The Blues
EXTD=
EXTT0=
EXTT1=
EXTT2=
EXTT3=
EXTT4=
EXTT5=
EXTT6=
EXTT7=
EXTT8=
EXTT9=
EXTT10=
EXTT11=
EXTT12=
PLAYORDER=
